<?xml version="1.0" encoding="UTF-8" standalone="no" ?>
<!DOCTYPE svg PUBLIC "-//W3C//DTD SVG 1.1//EN" "http://www.w3.org/Graphics/SVG/1.1/DTD/svg11.dtd">
<svg xmlns="http://www.w3.org/2000/svg" xmlns:xlink="http://www.w3.org/1999/xlink" version="1.1" width="822" height="240" viewBox="0 0 822 240" xml:space="preserve">
<desc>Created with Fabric.js 3.6.3</desc>
<defs>
</defs>
<g transform="matrix(1 0 0 1 379 102.5)"  >
<g style=""   >
		<g transform="matrix(1 0 0 1 -70.12 -1.01)"  >
<polygon style="stroke: none; stroke-width: 1; stroke-dasharray: none; stroke-linecap: butt; stroke-dashoffset: 0; stroke-linejoin: miter; stroke-miterlimit: 4; fill: rgb(239,59,45); fill-rule: nonzero; opacity: 1;"  points="-7.23,-50.11 -23.7,-50.11 -23.7,50.12 23.7,50.12 23.7,35.37 -7.23,35.37 " />
</g>
		<g transform="matrix(1 0 0 1 -7.91 15.74)"  >
<path style="stroke: none; stroke-width: 1; stroke-dasharray: none; stroke-linecap: butt; stroke-dashoffset: 0; stroke-linejoin: miter; stroke-miterlimit: 4; fill: rgb(239,59,45); fill-rule: nonzero; opacity: 1;"  transform=" translate(-459.09, -188.24)" d="M 478.706 163.902 c -2.101 -3.341 -5.083 -5.965 -8.949 -7.875 c -3.865 -1.909 -7.756 -2.864 -11.669 -2.864 c -5.062 0 -9.69 0.931 -13.89 2.792 c -4.201 1.861 -7.804 4.417 -10.811 7.661 c -3.007 3.246 -5.347 6.993 -7.016 11.239 c -1.672 4.249 -2.506 8.713 -2.506 13.389 c 0 4.774 0.834 9.26 2.506 13.459 c 1.669 4.202 4.009 7.925 7.016 11.169 c 3.007 3.246 6.609 5.799 10.811 7.66 c 4.199 1.861 8.828 2.792 13.89 2.792 c 3.913 0 7.804 -0.955 11.669 -2.863 c 3.866 -1.908 6.849 -4.533 8.949 -7.875 v 9.021 h 15.607 v -66.725 h -15.607 V 163.902 z M 477.275 196.405 c -0.955 2.578 -2.291 4.821 -4.009 6.73 c -1.719 1.91 -3.795 3.437 -6.229 4.582 c -2.435 1.146 -5.133 1.718 -8.091 1.718 c -2.96 0 -5.633 -0.572 -8.019 -1.718 c -2.387 -1.146 -4.438 -2.672 -6.156 -4.582 c -1.719 -1.909 -3.032 -4.152 -3.938 -6.73 c -0.909 -2.577 -1.36 -5.298 -1.36 -8.161 c 0 -2.864 0.451 -5.585 1.36 -8.162 c 0.905 -2.577 2.219 -4.819 3.938 -6.729 c 1.718 -1.908 3.77 -3.437 6.156 -4.582 c 2.386 -1.146 5.059 -1.718 8.019 -1.718 c 2.958 0 5.656 0.572 8.091 1.718 c 2.434 1.146 4.51 2.674 6.229 4.582 c 1.718 1.91 3.054 4.152 4.009 6.729 c 0.953 2.577 1.432 5.298 1.432 8.162 C 478.706 191.107 478.228 193.828 477.275 196.405 z" stroke-linecap="round" />
</g>
		<g transform="matrix(1 0 0 1 118.95 15.74)"  >
<path style="stroke: none; stroke-width: 1; stroke-dasharray: none; stroke-linecap: butt; stroke-dashoffset: 0; stroke-linejoin: miter; stroke-miterlimit: 4; fill: rgb(239,59,45); fill-rule: nonzero; opacity: 1;"  transform=" translate(-585.95, -188.24)" d="M 605.569 163.902 c -2.101 -3.341 -5.083 -5.965 -8.949 -7.875 c -3.865 -1.909 -7.756 -2.864 -11.669 -2.864 c -5.062 0 -9.69 0.931 -13.89 2.792 c -4.201 1.861 -7.804 4.417 -10.811 7.661 c -3.007 3.246 -5.347 6.993 -7.016 11.239 c -1.672 4.249 -2.506 8.713 -2.506 13.389 c 0 4.774 0.834 9.26 2.506 13.459 c 1.669 4.202 4.009 7.925 7.016 11.169 c 3.007 3.246 6.609 5.799 10.811 7.66 c 4.199 1.861 8.828 2.792 13.89 2.792 c 3.913 0 7.804 -0.955 11.669 -2.863 c 3.866 -1.908 6.849 -4.533 8.949 -7.875 v 9.021 h 15.607 v -66.725 h -15.607 V 163.902 z M 604.137 196.405 c -0.955 2.578 -2.291 4.821 -4.009 6.73 c -1.719 1.91 -3.795 3.437 -6.229 4.582 c -2.435 1.146 -5.133 1.718 -8.091 1.718 c -2.96 0 -5.633 -0.572 -8.019 -1.718 c -2.387 -1.146 -4.438 -2.672 -6.156 -4.582 c -1.719 -1.909 -3.032 -4.152 -3.938 -6.73 c -0.909 -2.577 -1.36 -5.298 -1.36 -8.161 c 0 -2.864 0.451 -5.585 1.36 -8.162 c 0.905 -2.577 2.219 -4.819 3.938 -6.729 c 1.718 -1.908 3.77 -3.437 6.156 -4.582 c 2.386 -1.146 5.059 -1.718 8.019 -1.718 c 2.958 0 5.656 0.572 8.091 1.718 c 2.434 1.146 4.51 2.674 6.229 4.582 c 1.718 1.91 3.054 4.152 4.009 6.729 c 0.953 2.577 1.432 5.298 1.432 8.162 C 605.569 191.107 605.09 193.828 604.137 196.405 z" stroke-linecap="round" />
</g>
		<g transform="matrix(1 0 0 1 317.58 -1)"  >
<rect style="stroke: none; stroke-width: 1; stroke-dasharray: none; stroke-linecap: butt; stroke-dashoffset: 0; stroke-linejoin: miter; stroke-miterlimit: 4; fill: rgb(239,59,45); fill-rule: nonzero; opacity: 1;"  x="-7.805" y="-50.115" rx="0" ry="0" width="15.61" height="100.23" />
</g>
		<g transform="matrix(1 0 0 1 60.82 15.74)"  >
<polygon style="stroke: none; stroke-width: 1; stroke-dasharray: none; stroke-linecap: butt; stroke-dashoffset: 0; stroke-linejoin: miter; stroke-miterlimit: 4; fill: rgb(239,59,45); fill-rule: nonzero; opacity: 1;"  points="-21.19,33.36 -5.58,33.36 -5.58,-18.01 21.19,-18.01 21.19,-33.36 -21.19,-33.36 " />
</g>
		<g transform="matrix(1 0 0 1 197.13 15.74)"  >
<polygon style="stroke: none; stroke-width: 1; stroke-dasharray: none; stroke-linecap: butt; stroke-dashoffset: 0; stroke-linejoin: miter; stroke-miterlimit: 4; fill: rgb(239,59,45); fill-rule: nonzero; opacity: 1;"  points="19.62,-33.36 0,17.73 -19.62,-33.36 -35.42,-33.36 -9.81,33.36 9.81,33.36 35.42,-33.36 " />
</g>
		<g transform="matrix(1 0 0 1 266.15 15.75)"  >
<path style="stroke: none; stroke-width: 1; stroke-dasharray: none; stroke-linecap: butt; stroke-dashoffset: 0; stroke-linejoin: miter; stroke-miterlimit: 4; fill: rgb(239,59,45); fill-rule: nonzero; opacity: 1;"  transform=" translate(-733.15, -188.25)" d="M 733.595 153.166 c -19.112 0 -34.239 15.706 -34.239 35.079 c 0 21.416 14.641 35.079 36.239 35.079 c 12.088 0 19.806 -4.622 29.234 -14.688 l -10.544 -8.158 c -0.006 0.008 -7.958 10.449 -19.832 10.449 c -13.802 0 -19.612 -11.127 -19.612 -16.884 h 51.777 C 769.338 172 754.846 153.166 733.595 153.166 z M 714.882 182.446 c 0.12 -1.284 1.917 -16.884 18.589 -16.884 c 16.671 0 18.697 15.598 18.813 16.884 H 714.882 z" stroke-linecap="round" />
</g>
		<g transform="matrix(1 0 0 1 -233.29 0)"  >
<path style="stroke: none; stroke-width: 1; stroke-dasharray: none; stroke-linecap: butt; stroke-dashoffset: 0; stroke-linejoin: miter; stroke-miterlimit: 4; fill: rgb(239,59,45); fill-rule: nonzero; opacity: 1;"  transform=" translate(-233.7, -172.5)" d="M 325.683 120.592 c -0.024 -0.088 -0.073 -0.165 -0.104 -0.25 c -0.058 -0.157 -0.108 -0.316 -0.191 -0.46 c -0.056 -0.097 -0.137 -0.176 -0.203 -0.265 c -0.087 -0.117 -0.161 -0.242 -0.265 -0.345 c -0.085 -0.086 -0.194 -0.148 -0.29 -0.223 c -0.109 -0.085 -0.206 -0.182 -0.327 -0.252 c 0 0 -0.001 0 -0.002 -0.001 c -0.001 0 -0.001 -0.001 -0.002 -0.002 L 288.651 98.27 c -0.917 -0.528 -2.047 -0.528 -2.964 0 l -35.647 20.522 c -0.001 0 -0.001 0.001 -0.002 0.002 c -0.001 0 -0.002 0 -0.002 0.001 c -0.121 0.07 -0.219 0.167 -0.327 0.252 c -0.096 0.075 -0.205 0.138 -0.29 0.223 c -0.103 0.103 -0.178 0.228 -0.265 0.345 c -0.066 0.089 -0.147 0.169 -0.203 0.265 c -0.083 0.144 -0.133 0.304 -0.191 0.46 c -0.031 0.085 -0.08 0.162 -0.104 0.25 c -0.067 0.249 -0.103 0.51 -0.103 0.776 v 38.979 l -29.706 17.103 v -76.255 c 0 -0.265 -0.036 -0.526 -0.103 -0.776 c -0.024 -0.088 -0.073 -0.165 -0.104 -0.25 c -0.058 -0.157 -0.108 -0.316 -0.191 -0.46 c -0.056 -0.097 -0.137 -0.176 -0.203 -0.265 c -0.087 -0.117 -0.161 -0.242 -0.265 -0.345 c -0.085 -0.086 -0.194 -0.148 -0.29 -0.223 c -0.109 -0.085 -0.206 -0.182 -0.327 -0.252 c 0 0 -0.001 0 -0.002 -0.001 c -0.001 0 -0.001 -0.001 -0.002 -0.002 l -35.647 -20.523 c -0.917 -0.528 -2.047 -0.528 -2.964 0 l -35.647 20.523 c -0.001 0 -0.001 0.001 -0.002 0.002 c -0.001 0 -0.002 0 -0.002 0.001 c -0.121 0.07 -0.219 0.167 -0.327 0.252 c -0.096 0.075 -0.205 0.138 -0.29 0.223 c -0.103 0.103 -0.178 0.228 -0.265 0.345 c -0.066 0.089 -0.147 0.169 -0.203 0.265 c -0.083 0.144 -0.133 0.304 -0.191 0.46 c -0.031 0.085 -0.08 0.162 -0.104 0.25 c -0.067 0.249 -0.103 0.51 -0.103 0.776 v 122.09 c 0 1.063 0.568 2.044 1.489 2.575 l 71.293 41.045 c 0.156 0.089 0.324 0.143 0.49 0.202 c 0.078 0.028 0.15 0.074 0.23 0.095 c 0.249 0.066 0.506 0.1 0.762 0.1 c 0.256 0 0.512 -0.033 0.762 -0.1 c 0.069 -0.018 0.132 -0.059 0.2 -0.083 c 0.176 -0.061 0.354 -0.119 0.519 -0.214 l 71.293 -41.045 c 0.921 -0.53 1.489 -1.512 1.489 -2.575 v -38.979 l 34.158 -19.666 c 0.921 -0.53 1.489 -1.512 1.489 -2.575 v -40.697 C 325.786 121.102 325.751 120.841 325.683 120.592 z M 215.87 219.867 l -29.648 -16.779 l 31.136 -17.926 c 0 0 0 0 0.001 -0.001 l 34.164 -19.669 l 29.674 17.084 l -21.772 12.428 L 215.87 219.867 z M 284.199 143.608 v 33.841 l -12.475 -7.182 l -17.231 -9.92 v -33.841 l 12.475 7.182 L 284.199 143.608 z M 287.169 104.273 l 29.693 17.095 l -29.693 17.095 l -29.693 -17.095 L 287.169 104.273 z M 195.675 190.789 l -12.475 7.182 v -74.538 l 17.231 -9.92 l 12.475 -7.182 v 74.537 L 195.675 190.789 z M 180.229 84.098 l 29.693 17.095 l -29.693 17.095 l -29.693 -17.095 L 180.229 84.098 z M 147.553 106.332 l 12.475 7.182 l 17.231 9.92 v 79.676 c 0 0.002 0.001 0.003 0.001 0.005 s -0.001 0.004 -0.001 0.006 c 0 0.114 0.032 0.221 0.045 0.333 c 0.017 0.146 0.021 0.294 0.059 0.434 c 0.001 0.002 0.001 0.005 0.002 0.007 c 0.032 0.117 0.094 0.222 0.14 0.334 c 0.051 0.124 0.088 0.255 0.156 0.371 c 0.001 0.003 0.002 0.006 0.004 0.009 c 0.061 0.105 0.149 0.191 0.222 0.288 c 0.081 0.105 0.149 0.22 0.244 0.314 c 0.003 0.003 0.005 0.007 0.008 0.01 c 0.084 0.083 0.19 0.142 0.284 0.215 c 0.106 0.083 0.202 0.178 0.32 0.247 c 0.004 0.002 0.009 0.003 0.013 0.005 c 0.004 0.002 0.007 0.006 0.011 0.008 l 34.139 19.321 v 34.175 l -65.352 -37.625 V 106.332 z M 284.199 221.567 l -65.352 37.625 v -34.182 l 48.399 -27.628 l 16.953 -9.677 V 221.567 z M 319.845 160.347 l -29.706 17.102 v -33.841 l 17.231 -9.92 l 12.475 -7.182 V 160.347 z" stroke-linecap="round" />
</g>
</g>
</g>
<g transform="matrix(1 0 0 1 735.41 193.84)" style=""  >
		<text xml:space="preserve" font-family="'Open Sans', sans-serif" font-size="35" font-style="normal" style="stroke: none; stroke-width: 1; stroke-dasharray: none; stroke-linecap: butt; stroke-dashoffset: 0; stroke-linejoin: miter; stroke-miterlimit: 4; fill: rgb(0,0,0); fill-rule: nonzero; opacity: 1; white-space: pre;" ><tspan x="-327.92" y="11.31" style="font-family: 'Oswald', sans-serif; font-size: 36px; font-weight: bold; fill: rgb(0,0,0); ">Source Code Encryptor</tspan></text>
</g>
</svg>